# xmcd
# 
# Track frame offsets:
#     150
#     42330
#     66347
#     105825
#     127030
#     151432
#     178475
#     198450
#     222850
#     257152
#     281750
#     312042
# 
# Disc length: 4409
# 
# Revision: 1
# Processed by: cddbd v1.5.2PL0 Copyright (c) Steve Scherf et al.
# Submitted via: fre:ac v1.0.17
# 
DISCID=b611370c
DTITLE=Diverse jazz - Jazz On CD, vol. 7
DYEAR=0
DGENRE=jazz
TTITLE0=Maynard Ferguson, tr. - Hit and run
TTITLE1=Woody Shaw - Estate
TTITLE2=Buster Williams - Fortune dance
TTITLE3=Chas Burchell - Marsh bars
TTITLE4=Mike Hennessey - Shades
TTITLE5=Urzula Dudziak - Theme from "Rosemary's baby"
TTITLE6=Flora Purim - Anatelio
TTITLE7=Sam Rivers - Stolen moments
TTITLE8=Lester Bowie - The great pretender
TTITLE9=Jasper van't Hof - Liliana
TTITLE10=Nat Adderley - Talkin' about you Cannon
TTITLE11=Hans Koller - Lush life
EXTD=In-Out Records, JAZ/7CD
EXTT0=
EXTT1=
EXTT2=
EXTT3=
EXTT4=
EXTT5=
EXTT6=
EXTT7=
EXTT8=
EXTT9=
EXTT10=
EXTT11=
PLAYORDER=
